<?xml version="1.0" standalone="no"?>
<!DOCTYPE svg PUBLIC "-//W3C//DTD SVG 20010904//EN"
 "http://www.w3.org/TR/2001/REC-SVG-20010904/DTD/svg10.dtd">
<svg version="1.0" xmlns="http://www.w3.org/2000/svg"
 width="260.000000pt" height="260.000000pt" viewBox="0 0 260.000000 260.000000"
 preserveAspectRatio="xMidYMid meet">
<metadata>
Created by potrace 1.11, written by Peter Selinger 2001-2013
</metadata>
<g transform="translate(0.000000,260.000000) scale(0.100000,-0.100000)"
fill="#000000" stroke="none">
<path d="M976 2589 c2 -5 11 -6 18 -3 8 3 17 1 20 -4 3 -5 -10 -8 -29 -6 -20
1 -33 -2 -30 -7 4 -5 -2 -6 -11 -2 -14 5 -16 3 -11 -11 5 -12 3 -15 -6 -9 -18
11 -37 12 -37 2 0 -5 -3 -8 -7 -8 -22 4 -33 -2 -27 -13 5 -10 4 -10 -6 -1 -11
10 -16 9 -27 -5 -14 -16 -14 -16 -9 3 5 18 5 18 -7 4 -6 -9 -22 -19 -35 -23
-12 -4 -22 -13 -22 -19 0 -8 -3 -7 -9 2 -7 11 -10 9 -16 -9 -6 -18 -9 -20 -16
-9 -6 10 -9 10 -9 2 0 -7 -7 -10 -17 -6 -9 4 -14 2 -10 -3 3 -6 -3 -16 -15
-23 -16 -10 -19 -10 -12 1 6 11 5 11 -9 0 -9 -8 -21 -11 -26 -7 -7 3 -8 0 -5
-9 4 -12 0 -16 -16 -16 -11 0 -19 -3 -16 -8 2 -4 -9 -15 -25 -25 -18 -10 -28
-12 -24 -4 4 6 0 3 -9 -7 -8 -10 -13 -23 -10 -27 3 -5 -2 -6 -10 -3 -9 3 -19
-3 -26 -16 -6 -11 -16 -17 -22 -14 -6 4 -8 3 -5 -3 4 -6 -1 -17 -10 -24 -14
-12 -16 -12 -8 0 5 10 4 12 -3 7 -7 -4 -12 -13 -12 -20 0 -7 -11 -19 -25 -26
-13 -7 -22 -17 -19 -22 3 -4 1 -8 -4 -8 -17 0 -53 -42 -48 -57 3 -8 2 -11 -3
-8 -5 3 -22 -6 -38 -21 -15 -14 -22 -22 -14 -18 9 5 12 3 7 -4 -4 -7 -14 -12
-23 -12 -10 0 -13 -6 -9 -16 4 -10 2 -13 -6 -8 -8 5 -9 2 -5 -10 4 -10 3 -15
-3 -11 -6 3 -10 -1 -10 -10 0 -9 -4 -14 -9 -11 -5 3 -14 -9 -21 -27 -8 -17
-19 -39 -27 -48 -7 -9 -16 -27 -18 -40 -3 -13 -9 -25 -15 -27 -6 -2 -8 -8 -4
-13 3 -5 1 -9 -5 -9 -6 0 -7 -8 -4 -17 5 -12 2 -15 -9 -11 -11 5 -14 0 -12
-17 1 -17 -4 -26 -18 -31 -18 -5 -18 -7 -2 -18 16 -12 16 -13 0 -19 -10 -4
-14 -12 -11 -18 4 -5 -1 -16 -11 -23 -12 -10 -14 -15 -5 -20 9 -6 7 -12 -6
-23 -10 -8 -12 -12 -5 -8 6 3 12 1 12 -4 0 -6 -4 -11 -9 -11 -5 0 -8 -11 -5
-24 2 -14 0 -27 -6 -31 -6 -3 -7 1 -4 9 3 9 2 16 -3 16 -5 0 -10 -115 -12
-270 -2 -196 1 -270 9 -270 6 0 8 5 4 12 -4 7 -3 8 4 4 6 -4 9 -13 6 -21 -4
-8 -9 -13 -13 -10 -12 7 -6 -48 8 -73 7 -13 10 -30 7 -37 -3 -9 2 -12 16 -10
20 4 20 4 3 -15 -16 -18 -16 -20 -1 -26 9 -3 13 -10 10 -15 -3 -5 -1 -9 3 -9
5 0 9 -14 9 -31 1 -17 7 -34 13 -38 6 -4 12 -17 14 -30 2 -13 15 -35 28 -49
13 -14 18 -22 10 -18 -13 8 16 -43 31 -54 4 -3 8 -20 10 -37 2 -24 6 -30 20
-28 10 2 16 0 13 -6 -4 -5 1 -12 10 -15 12 -5 13 -9 4 -20 -9 -11 -8 -14 3
-14 20 0 52 -36 43 -49 -3 -6 0 -11 8 -11 8 0 18 -7 21 -16 3 -8 10 -12 16 -9
6 4 7 -1 3 -11 -4 -12 -3 -15 5 -10 8 5 12 -1 12 -16 0 -18 2 -20 10 -8 9 13
14 7 11 -12 -1 -7 14 -12 31 -9 4 0 5 -6 1 -15 -3 -8 -2 -14 3 -13 21 4 28 -2
14 -11 -12 -8 -10 -10 8 -10 13 0 20 -4 17 -10 -3 -5 0 -10 7 -10 8 0 22 -14
32 -30 10 -17 22 -27 28 -24 8 5 9 1 5 -10 -5 -12 -3 -15 6 -9 25 16 39 12 23
-6 -15 -17 -14 -18 16 -17 25 1 33 -3 32 -15 -1 -10 5 -16 14 -15 9 2 23 -5
32 -14 8 -9 13 -11 10 -5 -3 6 3 2 13 -8 9 -11 17 -16 17 -13 0 4 13 0 30 -9
16 -9 30 -13 30 -10 0 3 6 0 14 -7 8 -7 12 -16 10 -19 -2 -3 3 -6 11 -6 8 0
12 3 10 7 -2 4 2 7 10 7 8 0 14 -3 13 -6 -3 -28 2 -33 19 -20 14 12 16 12 8 0
-6 -11 -3 -13 13 -9 12 4 22 2 22 -4 0 -5 4 -6 10 -3 5 3 10 1 10 -4 0 -6 9
-11 21 -11 11 0 18 -4 15 -8 -3 -5 1 -9 8 -9 8 0 12 6 9 14 -3 7 9 1 25 -14
31 -27 74 -39 66 -18 -3 6 5 11 16 11 22 0 27 -12 8 -19 -7 -3 99 -5 236 -6
201 0 251 2 262 14 14 14 48 10 39 -4 -5 -10 42 -8 51 2 4 3 -3 4 -15 2 -12
-2 -19 0 -16 5 3 4 16 7 30 5 16 -1 25 3 25 12 0 9 5 11 13 6 20 -13 38 -12
43 2 3 7 13 12 22 10 9 -1 22 2 29 7 7 5 16 7 21 4 5 -3 22 7 38 22 15 15 24
21 20 14 -6 -10 0 -9 23 2 17 9 31 21 31 26 0 5 6 7 14 4 8 -3 17 0 21 5 3 6
11 9 16 6 5 -4 6 2 2 12 -6 16 -5 16 10 4 15 -12 21 -9 19 11 -1 3 5 9 14 12
10 4 13 1 9 -7 -4 -6 2 -1 13 12 12 15 24 21 32 16 8 -5 11 -4 7 2 -4 6 1 17
10 24 12 10 14 10 9 2 -4 -7 -3 -13 2 -13 15 0 34 28 27 39 -4 7 1 8 11 4 12
-4 15 -3 10 5 -5 8 -1 10 10 5 13 -5 16 -3 11 10 -4 11 -1 15 13 12 14 -3 18
1 15 15 -2 12 1 17 10 14 7 -3 16 0 21 7 5 8 3 10 -6 4 -9 -5 -11 -4 -6 3 4 7
14 12 22 12 8 0 14 7 14 16 0 8 5 12 11 9 6 -4 13 2 16 14 3 12 12 21 20 21 9
0 13 6 10 14 -4 10 -1 13 9 9 12 -4 18 6 16 28 -1 4 11 17 26 30 l27 24 -20
-25 -20 -25 27 24 c15 13 25 28 22 32 -3 5 0 9 6 9 7 0 9 7 6 16 -3 8 -2 12 4
9 9 -6 14 7 11 27 0 4 6 5 14 2 11 -5 13 -2 9 10 -4 9 0 18 9 22 9 3 18 13 21
21 5 12 3 13 -7 7 -7 -5 -4 -1 6 9 11 9 15 17 11 17 -5 0 0 7 10 15 11 9 14
15 7 15 -8 0 -7 5 4 16 9 9 14 23 11 30 -3 8 0 11 10 7 9 -3 14 2 16 18 2 44
3 48 12 56 5 4 6 3 2 -4 -3 -6 -2 -14 3 -17 5 -3 7 9 6 28 -3 23 2 40 16 55
11 11 16 21 10 21 -5 0 -12 7 -15 16 -6 15 -4 15 11 3 10 -7 15 -9 10 -4 -4 4
0 19 9 33 9 13 12 22 7 19 -5 -4 -10 0 -10 7 0 8 5 12 12 10 6 -3 11 6 12 18
0 13 -1 17 -4 11 -8 -21 -22 -15 -16 7 3 11 10 17 15 14 6 -4 5 2 -1 14 -14
25 -14 43 -1 22 6 -10 10 64 10 218 0 174 -3 231 -12 226 -7 -5 -8 -3 -3 7 12
19 14 49 3 55 -4 3 -8 10 -8 15 0 6 4 7 10 4 6 -3 7 1 4 9 -3 9 -10 14 -14 11
-4 -3 -11 2 -14 11 -4 10 -2 13 7 8 6 -4 3 3 -8 16 -11 13 -15 20 -8 17 7 -5
10 -1 9 10 -2 9 -8 19 -14 21 -6 2 -9 9 -6 17 3 7 0 16 -7 21 -8 5 -10 3 -4
-7 5 -8 4 -10 0 -6 -17 15 -14 39 3 33 11 -4 8 2 -7 14 -13 11 -20 20 -16 20
4 0 2 6 -4 13 -6 8 -8 17 -4 20 3 4 1 7 -6 7 -7 0 -10 4 -6 9 3 6 -5 20 -17
32 -13 12 -16 18 -8 14 12 -7 13 -6 3 7 -7 8 -9 19 -5 23 4 5 1 5 -5 1 -8 -4
-13 -1 -13 9 0 9 -4 14 -9 11 -4 -3 -7 5 -6 19 2 16 -1 22 -10 19 -8 -4 -11 3
-10 20 2 14 0 25 -3 25 -19 -3 -30 3 -36 17 -3 8 -2 12 4 9 6 -3 10 -1 10 4 0
6 -7 11 -16 11 -8 0 -13 4 -10 8 6 10 -39 52 -55 52 -5 0 -7 5 -4 10 3 6 1 10
-5 10 -6 0 -8 5 -5 10 3 6 -1 10 -10 10 -9 0 -13 5 -10 10 3 6 -1 10 -9 10 -9
0 -16 7 -16 15 0 13 -12 19 -32 16 -4 0 -5 6 -2 14 4 9 0 15 -10 15 -9 0 -16
7 -16 16 0 8 -4 12 -10 9 -6 -3 -10 -1 -10 4 0 6 -7 11 -16 11 -8 0 -12 5 -9
10 3 6 1 10 -5 10 -6 0 -9 3 -7 8 2 4 -5 16 -16 26 -17 16 -19 17 -14 3 3 -9
2 -17 -3 -17 -6 0 -10 9 -10 21 0 11 -4 18 -9 14 -5 -3 -16 1 -24 9 -8 8 -17
12 -21 9 -3 -3 -8 2 -12 11 -3 9 -12 16 -20 16 -8 0 -14 8 -14 18 0 14 -2 15
-10 2 -7 -11 -10 -11 -10 -2 0 7 -4 10 -10 7 -5 -3 -10 1 -10 9 0 9 -7 13 -18
11 -11 -2 -25 5 -33 16 -8 11 -25 19 -41 19 -15 0 -28 5 -28 12 0 6 -3 8 -7 5
-3 -4 -11 1 -18 10 -15 20 -59 29 -50 11 4 -7 1 -6 -7 3 -7 9 -19 14 -25 12
-7 -3 -16 2 -19 11 -3 9 -10 16 -16 16 -5 0 -6 -4 -3 -10 3 -5 1 -10 -4 -10
-6 0 -11 6 -11 13 0 8 -4 7 -10 -3 -8 -13 -10 -13 -10 2 0 13 -7 16 -30 13
-16 -2 -30 1 -30 6 0 6 4 8 9 4 5 -3 12 -2 15 3 6 10 -70 9 -80 -1 -4 -4 -12
-7 -18 -7 -6 0 -4 5 4 10 10 7 -74 10 -267 8 -155 -1 -280 -5 -277 -9z m94 -3
c0 -3 -4 -8 -10 -11 -5 -3 -10 -1 -10 4 0 6 5 11 10 11 6 0 10 -2 10 -4z
m-1040 -1025 c0 -6 -4 -12 -8 -15 -5 -3 -9 1 -9 9 0 8 4 15 9 15 4 0 8 -4 8
-9z m458 -1296 c-3 -3 -9 2 -12 12 -6 14 -5 15 5 6 7 -7 10 -15 7 -18z m1322
-169 c0 -2 -8 -10 -17 -17 -16 -13 -17 -12 -4 4 13 16 21 21 21 13z m-63 -28
c-3 -8 -6 -5 -6 6 -1 11 2 17 5 13 3 -3 4 -12 1 -19z m-757 -48 c0 -5 -2 -10
-4 -10 -3 0 -8 5 -11 10 -3 6 -1 10 4 10 6 0 11 -4 11 -10z"/>
<path d="M236 505 c4 -8 11 -15 16 -15 6 0 5 6 -2 15 -7 8 -14 15 -16 15 -2 0
-1 -7 2 -15z"/>
</g>
</svg>
